<svg xmlns="http://www.w3.org/2000/svg" xmlns:xlink="http://www.w3.org/1999/xlink" x="0px" y="0px"
     viewBox="0 0 216 146" style="enable-background:new 0 0 216 146;" xml:space="preserve" role="img">
     <title>Instagram</title>
<path d="M152.8,0H63.2C47.7,0,35,12.7,35,28.2V58v59.8c0,15.6,12.7,28.2,28.2,28.2h89.6c15.6,0,28.2-12.7,28.2-28.2V58V28.2
    C181,12.7,168.3,0,152.8,0z M160.9,16.8l3.2,0V20v21.5l-24.7,0.1l-0.1-24.7L160.9,16.8z M87.2,58c4.7-6.5,12.3-10.7,20.8-10.7
    s16.2,4.2,20.8,10.7c3,4.2,4.9,9.4,4.9,15c0,14.2-11.5,25.7-25.7,25.7c-14.2,0-25.7-11.5-25.7-25.7C82.3,67.4,84.1,62.2,87.2,58z
     M166.8,117.8c0,7.7-6.3,14-14,14H63.2c-7.7,0-14-6.3-14-14V58H71c-1.9,4.6-2.9,9.7-2.9,15c0,22,17.9,39.9,39.9,39.9
    c22,0,39.9-17.9,39.9-39.9c0-5.3-1.1-10.4-2.9-15h21.8V117.8z"/>
</svg>
