<svg version="1.1" id="Capa_1" xmlns="http://www.w3.org/2000/svg" xmlns:xlink="http://www.w3.org/1999/xlink" x="0px" y="0px"
     viewBox="0 0 216 146" style="enable-background:new 0 0 216 146;" xml:space="preserve" role="img">
<title>Twitter</title>
<path d="M197.9,17.3c-7.1,3-14.1,4.9-21.2,5.7c8-4.8,13.4-11.6,16.2-20.3c-7.3,4.3-15.1,7.3-23.4,8.9C162.2,3.9,153.2,0,142.6,0
    c-10.2,0-18.9,3.6-26.1,10.8c-7.2,7.2-10.8,15.9-10.8,26.1c0,2.7,0.3,5.6,0.9,8.4c-15.1-0.8-29.2-4.5-42.4-11.3
    C51.1,27.1,39.9,18.1,30.7,6.7c-3.3,5.7-5,11.9-5,18.6c0,6.3,1.5,12.2,4.4,17.6c3,5.4,7,9.8,12,13.1c-5.9-0.2-11.5-1.8-16.7-4.7v0.5
    c0,8.9,2.8,16.7,8.4,23.4c5.6,6.7,12.6,11,21.2,12.7c-3.2,0.8-6.4,1.3-9.7,1.3c-2.1,0-4.4-0.2-7-0.6c2.4,7.4,6.7,13.4,13,18.2
    c6.3,4.8,13.5,7.2,21.4,7.4c-13.4,10.5-28.6,15.7-45.7,15.7c-3.3,0-6.2-0.1-8.9-0.5c17.1,11,36,16.5,56.6,16.5
    c13.1,0,25.4-2.1,36.8-6.2c11.5-4.1,21.3-9.7,29.4-16.7c8.1-7,15.2-15,21-24c5.9-9,10.3-18.5,13.2-28.3c2.9-9.8,4.3-19.7,4.3-29.6
    c0-2.1,0-3.7-0.1-4.8C186.6,31.1,192.8,24.8,197.9,17.3z"/>
</svg>
