<svg version="1.1" id="Layer_1" xmlns="http://www.w3.org/2000/svg" xmlns:xlink="http://www.w3.org/1999/xlink" x="0px" y="0px"
     viewBox="0 0 216 146" style="enable-background:new 0 0 216 146;" xml:space="preserve" role="img">
<title>LinkedIn</title>
<g>
    <rect x="33.5" y="47.4" width="32.8" height="98.6"/>
    <path d="M174,56.4c-6.9-7.5-16-11.3-27.3-11.3c-4.2,0-8,0.5-11.4,1.5c-3.4,1-6.3,2.5-8.7,4.3c-2.4,1.9-4.2,3.6-5.6,5.2
        c-1.3,1.5-2.6,3.3-3.9,5.3v-14H84.4l0.1,4.8c0.1,3.2,0.1,13,0.1,29.4c0,16.4-0.1,37.9-0.2,64.3h32.7V91c0-3.4,0.4-6.1,1.1-8.1
        c1.4-3.4,3.5-6.2,6.3-8.5c2.8-2.3,6.3-3.4,10.5-3.4c5.7,0,9.9,2,12.6,5.9c2.7,3.9,4,9.4,4,16.4V146h32.7V89.5
        C184.4,75,180.9,64,174,56.4z"/>
    <path d="M50.1,0c-5.5,0-10,1.6-13.4,4.8s-5.1,7.3-5.1,12.2c0,4.8,1.7,8.9,5,12.1c3.3,3.2,7.7,4.9,13.1,4.9h0.2
        c5.6,0,10.1-1.6,13.5-4.9c3.4-3.2,5.1-7.3,5-12.1c-0.1-4.9-1.8-9-5.1-12.2C60,1.6,55.6,0,50.1,0z"/>
</g>
</svg>
